solid ASCII
  facet normal 1.000000e+00 0.000000e+00 0.000000e+00
    outer loop
      vertex   -2.300000e+02 4.500000e+02 1.500000e+02
      vertex   -2.300000e+02 -4.500000e+02 1.500000e+02
      vertex   -2.300000e+02 4.500000e+02 5.000000e+01
    endloop
  endfacet
  facet normal 1.000000e+00 0.000000e+00 0.000000e+00
    outer loop
      vertex   -2.300000e+02 4.500000e+02 5.000000e+01
      vertex   -2.300000e+02 -4.500000e+02 1.500000e+02
      vertex   -2.300000e+02 -4.500000e+02 5.000000e+01
    endloop
  endfacet
  facet normal -0.000000e+00 1.000000e+00 0.000000e+00
    outer loop
      vertex   -2.300000e+02 -4.500000e+02 1.500000e+02
      vertex   2.300000e+02 -4.500000e+02 1.500000e+02
      vertex   -2.300000e+02 -4.500000e+02 5.000000e+01
    endloop
  endfacet
  facet normal 0.000000e+00 1.000000e+00 0.000000e+00
    outer loop
      vertex   -2.300000e+02 -4.500000e+02 5.000000e+01
      vertex   2.300000e+02 -4.500000e+02 1.500000e+02
      vertex   2.300000e+02 -4.500000e+02 5.000000e+01
    endloop
  endfacet
  facet normal -1.000000e+00 0.000000e+00 0.000000e+00
    outer loop
      vertex   2.300000e+02 -4.500000e+02 1.500000e+02
      vertex   2.300000e+02 4.500000e+02 1.500000e+02
      vertex   2.300000e+02 -4.500000e+02 5.000000e+01
    endloop
  endfacet
  facet normal -1.000000e+00 0.000000e+00 0.000000e+00
    outer loop
      vertex   2.300000e+02 -4.500000e+02 5.000000e+01
      vertex   2.300000e+02 4.500000e+02 1.500000e+02
      vertex   2.300000e+02 4.500000e+02 5.000000e+01
    endloop
  endfacet
  facet normal -0.000000e+00 -1.000000e+00 -0.000000e+00
    outer loop
      vertex   2.300000e+02 4.500000e+02 1.500000e+02
      vertex   -2.300000e+02 4.500000e+02 1.500000e+02
      vertex   2.300000e+02 4.500000e+02 5.000000e+01
    endloop
  endfacet
  facet normal 0.000000e+00 -1.000000e+00 0.000000e+00
    outer loop
      vertex   2.300000e+02 4.500000e+02 5.000000e+01
      vertex   -2.300000e+02 4.500000e+02 1.500000e+02
      vertex   -2.300000e+02 4.500000e+02 5.000000e+01
    endloop
  endfacet
  facet normal 0.000000e+00 0.000000e+00 1.000000e+00
    outer loop
      vertex   2.300000e+02 4.500000e+02 5.000000e+01
      vertex   -2.300000e+02 4.500000e+02 5.000000e+01
      vertex   2.300000e+02 -4.500000e+02 5.000000e+01
    endloop
  endfacet
  facet normal 0.000000e+00 0.000000e+00 1.000000e+00
    outer loop
      vertex   2.300000e+02 -4.500000e+02 5.000000e+01
      vertex   -2.300000e+02 4.500000e+02 5.000000e+01
      vertex   -2.300000e+02 -4.500000e+02 5.000000e+01
    endloop
  endfacet
  facet normal 0.000000e+00 1.000000e+00 -0.000000e+00
    outer loop
      vertex   2.800000e+02 5.500000e+02 0.000000e+00
      vertex   -2.800000e+02 5.500000e+02 0.000000e+00
      vertex   2.800000e+02 5.500000e+02 1.500000e+02
    endloop
  endfacet
  facet normal 0.000000e+00 1.000000e+00 0.000000e+00
    outer loop
      vertex   2.800000e+02 5.500000e+02 1.500000e+02
      vertex   -2.800000e+02 5.500000e+02 0.000000e+00
      vertex   -2.800000e+02 5.500000e+02 1.500000e+02
    endloop
  endfacet
  facet normal 7.071068e-01 7.071068e-01 -0.000000e+00
    outer loop
      vertex   3.300000e+02 5.000000e+02 0.000000e+00
      vertex   2.800000e+02 5.500000e+02 0.000000e+00
      vertex   3.300000e+02 5.000000e+02 1.500000e+02
    endloop
  endfacet
  facet normal 7.071068e-01 7.071068e-01 0.000000e+00
    outer loop
      vertex   3.300000e+02 5.000000e+02 1.500000e+02
      vertex   2.800000e+02 5.500000e+02 0.000000e+00
      vertex   2.800000e+02 5.500000e+02 1.500000e+02
    endloop
  endfacet
  facet normal 1.000000e+00 1.705303e-16 -3.789561e-16
    outer loop
      vertex   3.300000e+02 -5.000000e+02 0.000000e+00
      vertex   3.300000e+02 5.000000e+02 0.000000e+00
      vertex   3.300000e+02 -5.000000e+02 1.500000e+02
    endloop
  endfacet
  facet normal 1.000000e+00 2.273737e-16 0.000000e+00
    outer loop
      vertex   3.300000e+02 -5.000000e+02 1.500000e+02
      vertex   3.300000e+02 5.000000e+02 0.000000e+00
      vertex   3.300000e+02 5.000000e+02 1.500000e+02
    endloop
  endfacet
  facet normal 7.071068e-01 -7.071068e-01 5.359249e-16
    outer loop
      vertex   2.800000e+02 -5.500000e+02 0.000000e+00
      vertex   3.300000e+02 -5.000000e+02 0.000000e+00
      vertex   2.800000e+02 -5.500000e+02 1.500000e+02
    endloop
  endfacet
  facet normal 7.071068e-01 -7.071068e-01 2.572439e-16
    outer loop
      vertex   2.800000e+02 -5.500000e+02 1.500000e+02
      vertex   3.300000e+02 -5.000000e+02 0.000000e+00
      vertex   3.300000e+02 -5.000000e+02 1.500000e+02
    endloop
  endfacet
  facet normal 0.000000e+00 -1.000000e+00 7.579123e-16
    outer loop
      vertex   -2.800000e+02 -5.500000e+02 0.000000e+00
      vertex   2.800000e+02 -5.500000e+02 0.000000e+00
      vertex   -2.800000e+02 -5.500000e+02 1.500000e+02
    endloop
  endfacet
  facet normal 0.000000e+00 -1.000000e+00 7.579123e-16
    outer loop
      vertex   -2.800000e+02 -5.500000e+02 1.500000e+02
      vertex   2.800000e+02 -5.500000e+02 0.000000e+00
      vertex   2.800000e+02 -5.500000e+02 1.500000e+02
    endloop
  endfacet
  facet normal -7.071068e-01 -7.071068e-01 5.359249e-16
    outer loop
      vertex   -3.300000e+02 -5.000000e+02 0.000000e+00
      vertex   -2.800000e+02 -5.500000e+02 0.000000e+00
      vertex   -3.300000e+02 -5.000000e+02 1.500000e+02
    endloop
  endfacet
  facet normal -7.071068e-01 -7.071068e-01 5.144879e-16
    outer loop
      vertex   -3.300000e+02 -5.000000e+02 1.500000e+02
      vertex   -2.800000e+02 -5.500000e+02 0.000000e+00
      vertex   -2.800000e+02 -5.500000e+02 1.500000e+02
    endloop
  endfacet
  facet normal -1.000000e+00 -3.410605e-16 0.000000e+00
    outer loop
      vertex   -3.300000e+02 5.000000e+02 0.000000e+00
      vertex   -3.300000e+02 -5.000000e+02 0.000000e+00
      vertex   -3.300000e+02 5.000000e+02 1.500000e+02
    endloop
  endfacet
  facet normal -1.000000e+00 -3.410605e-16 0.000000e+00
    outer loop
      vertex   -3.300000e+02 5.000000e+02 1.500000e+02
      vertex   -3.300000e+02 -5.000000e+02 0.000000e+00
      vertex   -3.300000e+02 -5.000000e+02 1.500000e+02
    endloop
  endfacet
  facet normal -7.071068e-01 7.071068e-01 0.000000e+00
    outer loop
      vertex   -2.800000e+02 5.500000e+02 0.000000e+00
      vertex   -3.300000e+02 5.000000e+02 0.000000e+00
      vertex   -2.800000e+02 5.500000e+02 1.500000e+02
    endloop
  endfacet
  facet normal -7.071068e-01 7.071068e-01 0.000000e+00
    outer loop
      vertex   -2.800000e+02 5.500000e+02 1.500000e+02
      vertex   -3.300000e+02 5.000000e+02 0.000000e+00
      vertex   -3.300000e+02 5.000000e+02 1.500000e+02
    endloop
  endfacet
  facet normal 0.000000e+00 0.000000e+00 -1.000000e+00
    outer loop
      vertex   -3.300000e+02 5.000000e+02 0.000000e+00
      vertex   -2.800000e+02 5.500000e+02 0.000000e+00
      vertex   -3.300000e+02 -5.000000e+02 0.000000e+00
    endloop
  endfacet
  facet normal 0.000000e+00 0.000000e+00 -1.000000e+00
    outer loop
      vertex   -3.300000e+02 -5.000000e+02 0.000000e+00
      vertex   -2.800000e+02 5.500000e+02 0.000000e+00
      vertex   -2.800000e+02 -5.500000e+02 0.000000e+00
    endloop
  endfacet
  facet normal 0.000000e+00 0.000000e+00 -1.000000e+00
    outer loop
      vertex   -2.800000e+02 -5.500000e+02 0.000000e+00
      vertex   -2.800000e+02 5.500000e+02 0.000000e+00
      vertex   2.800000e+02 5.500000e+02 0.000000e+00
    endloop
  endfacet
  facet normal 0.000000e+00 0.000000e+00 -1.000000e+00
    outer loop
      vertex   -2.800000e+02 -5.500000e+02 0.000000e+00
      vertex   2.800000e+02 5.500000e+02 0.000000e+00
      vertex   2.800000e+02 -5.500000e+02 0.000000e+00
    endloop
  endfacet
  facet normal 0.000000e+00 0.000000e+00 -1.000000e+00
    outer loop
      vertex   2.800000e+02 -5.500000e+02 0.000000e+00
      vertex   2.800000e+02 5.500000e+02 0.000000e+00
      vertex   3.300000e+02 -5.000000e+02 0.000000e+00
    endloop
  endfacet
  facet normal 0.000000e+00 0.000000e+00 -1.000000e+00
    outer loop
      vertex   3.300000e+02 -5.000000e+02 0.000000e+00
      vertex   2.800000e+02 5.500000e+02 0.000000e+00
      vertex   3.300000e+02 5.000000e+02 0.000000e+00
    endloop
  endfacet
  facet normal 0.000000e+00 0.000000e+00 1.000000e+00
    outer loop
      vertex   -2.300000e+02 4.500000e+02 1.500000e+02
      vertex   -3.300000e+02 -5.000000e+02 1.500000e+02
      vertex   -2.300000e+02 -4.500000e+02 1.500000e+02
    endloop
  endfacet
  facet normal 0.000000e+00 0.000000e+00 1.000000e+00
    outer loop
      vertex   -2.300000e+02 -4.500000e+02 1.500000e+02
      vertex   -3.300000e+02 -5.000000e+02 1.500000e+02
      vertex   -2.800000e+02 -5.500000e+02 1.500000e+02
    endloop
  endfacet
  facet normal 0.000000e+00 0.000000e+00 1.000000e+00
    outer loop
      vertex   -2.300000e+02 -4.500000e+02 1.500000e+02
      vertex   -2.800000e+02 -5.500000e+02 1.500000e+02
      vertex   2.800000e+02 -5.500000e+02 1.500000e+02
    endloop
  endfacet
  facet normal 0.000000e+00 0.000000e+00 1.000000e+00
    outer loop
      vertex   2.300000e+02 4.500000e+02 1.500000e+02
      vertex   -2.800000e+02 5.500000e+02 1.500000e+02
      vertex   -2.300000e+02 4.500000e+02 1.500000e+02
    endloop
  endfacet
  facet normal 0.000000e+00 0.000000e+00 1.000000e+00
    outer loop
      vertex   -2.300000e+02 4.500000e+02 1.500000e+02
      vertex   -2.800000e+02 5.500000e+02 1.500000e+02
      vertex   -3.300000e+02 5.000000e+02 1.500000e+02
    endloop
  endfacet
  facet normal 0.000000e+00 0.000000e+00 1.000000e+00
    outer loop
      vertex   -2.300000e+02 4.500000e+02 1.500000e+02
      vertex   -3.300000e+02 5.000000e+02 1.500000e+02
      vertex   -3.300000e+02 -5.000000e+02 1.500000e+02
    endloop
  endfacet
  facet normal -0.000000e+00 0.000000e+00 1.000000e+00
    outer loop
      vertex   2.300000e+02 -4.500000e+02 1.500000e+02
      vertex   3.300000e+02 -5.000000e+02 1.500000e+02
      vertex   2.300000e+02 4.500000e+02 1.500000e+02
    endloop
  endfacet
  facet normal -0.000000e+00 0.000000e+00 1.000000e+00
    outer loop
      vertex   2.300000e+02 4.500000e+02 1.500000e+02
      vertex   3.300000e+02 -5.000000e+02 1.500000e+02
      vertex   3.300000e+02 5.000000e+02 1.500000e+02
    endloop
  endfacet
  facet normal 0.000000e+00 0.000000e+00 1.000000e+00
    outer loop
      vertex   2.300000e+02 4.500000e+02 1.500000e+02
      vertex   3.300000e+02 5.000000e+02 1.500000e+02
      vertex   2.800000e+02 5.500000e+02 1.500000e+02
    endloop
  endfacet
  facet normal 0.000000e+00 0.000000e+00 1.000000e+00
    outer loop
      vertex   3.300000e+02 -5.000000e+02 1.500000e+02
      vertex   2.300000e+02 -4.500000e+02 1.500000e+02
      vertex   2.800000e+02 -5.500000e+02 1.500000e+02
    endloop
  endfacet
  facet normal 0.000000e+00 0.000000e+00 1.000000e+00
    outer loop
      vertex   2.800000e+02 -5.500000e+02 1.500000e+02
      vertex   2.300000e+02 -4.500000e+02 1.500000e+02
      vertex   -2.300000e+02 -4.500000e+02 1.500000e+02
    endloop
  endfacet
  facet normal 0.000000e+00 0.000000e+00 1.000000e+00
    outer loop
      vertex   2.800000e+02 5.500000e+02 1.500000e+02
      vertex   -2.800000e+02 5.500000e+02 1.500000e+02
      vertex   2.300000e+02 4.500000e+02 1.500000e+02
    endloop
  endfacet
endsolid
