solid ASCII
  facet normal 7.071068e-01 1.182187e-16 7.071068e-01
    outer loop
      vertex   2.050000e+02 4.250000e+02 1.700000e+02
      vertex   2.050000e+02 -4.250000e+02 1.700000e+02
      vertex   2.250000e+02 4.450000e+02 1.500000e+02
    endloop
  endfacet
  facet normal 7.071068e-01 1.129055e-16 7.071068e-01
    outer loop
      vertex   2.250000e+02 4.450000e+02 1.500000e+02
      vertex   2.050000e+02 -4.250000e+02 1.700000e+02
      vertex   2.250000e+02 -4.450000e+02 1.500000e+02
    endloop
  endfacet
  facet normal 1.960701e-16 -7.071068e-01 7.071068e-01
    outer loop
      vertex   2.050000e+02 -4.250000e+02 1.700000e+02
      vertex   -2.050000e+02 -4.250000e+02 1.700000e+02
      vertex   2.250000e+02 -4.450000e+02 1.500000e+02
    endloop
  endfacet
  facet normal 1.339812e-16 -7.071068e-01 7.071068e-01
    outer loop
      vertex   2.250000e+02 -4.450000e+02 1.500000e+02
      vertex   -2.050000e+02 -4.250000e+02 1.700000e+02
      vertex   -2.250000e+02 -4.450000e+02 1.500000e+02
    endloop
  endfacet
  facet normal -7.071068e-01 -2.364375e-17 7.071068e-01
    outer loop
      vertex   -2.050000e+02 -4.250000e+02 1.700000e+02
      vertex   -2.050000e+02 4.250000e+02 1.700000e+02
      vertex   -2.250000e+02 -4.450000e+02 1.500000e+02
    endloop
  endfacet
  facet normal -7.071068e-01 -4.516221e-17 7.071068e-01
    outer loop
      vertex   -2.250000e+02 -4.450000e+02 1.500000e+02
      vertex   -2.050000e+02 4.250000e+02 1.700000e+02
      vertex   -2.250000e+02 4.450000e+02 1.500000e+02
    endloop
  endfacet
  facet normal -4.466041e-17 7.071068e-01 7.071068e-01
    outer loop
      vertex   2.250000e+02 4.450000e+02 1.500000e+02
      vertex   -2.250000e+02 4.450000e+02 1.500000e+02
      vertex   2.050000e+02 4.250000e+02 1.700000e+02
    endloop
  endfacet
  facet normal 0.000000e+00 7.071068e-01 7.071068e-01
    outer loop
      vertex   2.050000e+02 4.250000e+02 1.700000e+02
      vertex   -2.250000e+02 4.450000e+02 1.500000e+02
      vertex   -2.050000e+02 4.250000e+02 1.700000e+02
    endloop
  endfacet
  facet normal -1.263187e-16 1.000000e+00 0.000000e+00
    outer loop
      vertex   -2.250000e+02 4.450000e+02 1.500000e+02
      vertex   2.250000e+02 4.450000e+02 1.500000e+02
      vertex   -2.250000e+02 4.450000e+02 5.000000e+01
    endloop
  endfacet
  facet normal -1.263187e-16 1.000000e+00 0.000000e+00
    outer loop
      vertex   -2.250000e+02 4.450000e+02 5.000000e+01
      vertex   2.250000e+02 4.450000e+02 1.500000e+02
      vertex   2.250000e+02 4.450000e+02 5.000000e+01
    endloop
  endfacet
  facet normal 1.000000e+00 1.596725e-16 0.000000e+00
    outer loop
      vertex   2.250000e+02 4.450000e+02 1.500000e+02
      vertex   2.250000e+02 -4.450000e+02 1.500000e+02
      vertex   2.250000e+02 4.450000e+02 5.000000e+01
    endloop
  endfacet
  facet normal 1.000000e+00 1.596725e-16 0.000000e+00
    outer loop
      vertex   2.250000e+02 4.450000e+02 5.000000e+01
      vertex   2.250000e+02 -4.450000e+02 1.500000e+02
      vertex   2.250000e+02 -4.450000e+02 5.000000e+01
    endloop
  endfacet
  facet normal 1.386425e-16 2.317916e-32 1.000000e+00
    outer loop
      vertex   2.050000e+02 4.250000e+02 1.700000e+02
      vertex   -2.050000e+02 4.250000e+02 1.700000e+02
      vertex   2.050000e+02 -4.250000e+02 1.700000e+02
    endloop
  endfacet
  facet normal 1.386425e-16 0.000000e+00 1.000000e+00
    outer loop
      vertex   2.050000e+02 -4.250000e+02 1.700000e+02
      vertex   -2.050000e+02 4.250000e+02 1.700000e+02
      vertex   -2.050000e+02 -4.250000e+02 1.700000e+02
    endloop
  endfacet
  facet normal 1.263187e-16 -1.000000e+00 0.000000e+00
    outer loop
      vertex   2.250000e+02 -4.450000e+02 1.500000e+02
      vertex   -2.250000e+02 -4.450000e+02 1.500000e+02
      vertex   2.250000e+02 -4.450000e+02 5.000000e+01
    endloop
  endfacet
  facet normal 1.263187e-16 -1.000000e+00 0.000000e+00
    outer loop
      vertex   2.250000e+02 -4.450000e+02 5.000000e+01
      vertex   -2.250000e+02 -4.450000e+02 1.500000e+02
      vertex   -2.250000e+02 -4.450000e+02 5.000000e+01
    endloop
  endfacet
  facet normal -1.000000e+00 -6.386901e-17 -0.000000e+00
    outer loop
      vertex   -2.250000e+02 -4.450000e+02 1.500000e+02
      vertex   -2.250000e+02 4.450000e+02 1.500000e+02
      vertex   -2.250000e+02 -4.450000e+02 5.000000e+01
    endloop
  endfacet
  facet normal -1.000000e+00 -6.386901e-17 0.000000e+00
    outer loop
      vertex   -2.250000e+02 -4.450000e+02 5.000000e+01
      vertex   -2.250000e+02 4.450000e+02 1.500000e+02
      vertex   -2.250000e+02 4.450000e+02 5.000000e+01
    endloop
  endfacet
  facet normal -9.473903e-17 -6.050888e-33 -1.000000e+00
    outer loop
      vertex   -2.250000e+02 4.450000e+02 5.000000e+01
      vertex   2.250000e+02 4.450000e+02 5.000000e+01
      vertex   -2.250000e+02 -4.450000e+02 5.000000e+01
    endloop
  endfacet
  facet normal -9.473903e-17 -1.613570e-32 -1.000000e+00
    outer loop
      vertex   -2.250000e+02 -4.450000e+02 5.000000e+01
      vertex   2.250000e+02 4.450000e+02 5.000000e+01
      vertex   2.250000e+02 -4.450000e+02 5.000000e+01
    endloop
  endfacet
endsolid
